# xmcd CD database file
#
# Track frame offsets:
#	150
#	21974
#	39570
#	56110
#	78104
#	99789
#	124395
#	148852
#	165120
#	181660
#	199464
#	220062
#	236079
#	260695
#
# Disc length: 3661 seconds
#
# Revision: 0
# Processed by: cddbd v1.5.2PL0 Copyright (c) Steve Scherf et al.
# Submitted via: CDex 1.70beta2
#
DISCID=c00e4b0e
DTITLE=Rod Piazza and The Mighty Flyers - Thrillville
DYEAR=2007
DGENRE=Blues
TTITLE0=Hate To See You Go/Shake Your Hips
TTITLE1=Westcoaster
TTITLE2=Sugar
TTITLE3=Get Wise
TTITLE4=Hoodoo Man Blues
TTITLE5=MFBQ
TTITLE6=Honey Bee
TTITLE7=I Don't Play
TTITLE8=The Civilian
TTITLE9=Stranded
TTITLE10=It Can't Be True
TTITLE11=Snap Crackle Hop
TTITLE12=Stranger Blues
TTITLE13=Sad Hours
EXTD=YEAR: 2007
EXTT0=
EXTT1=
EXTT2=
EXTT3=
EXTT4=
EXTT5=
EXTT6=
EXTT7=
EXTT8=
EXTT9=
EXTT10=
EXTT11=
EXTT12=
EXTT13=
PLAYORDER=
